<?xml version="1.0" ?><!DOCTYPE svg  PUBLIC '-//W3C//DTD SVG 1.1//EN'  'http://www.w3.org/Graphics/SVG/1.1/DTD/svg11.dtd'><svg enable-background="new 0 0 24 24" height="24px" id="Layer_1" version="1.1" viewBox="0 0 24 24" width="24px" xml:space="preserve" xmlns="http://www.w3.org/2000/svg" xmlns:xlink="http://www.w3.org/1999/xlink"><g><path d="M23.1,9h-1.5c-0.2-0.6-0.4-1.1-0.7-1.6l1-1c0.4-0.4,0.4-1,0-1.4l-2.8-2.8c-0.4-0.4-1-0.4-1.4,0l-1.1,1   C16.1,2.9,16,2.6,15,2.5V1c0-0.6-0.4-1-0.9-1h-4C9.5,0,9,0.4,9,1v1.5C8,2.6,7.9,2.9,7.4,3.1l-1-1C6,1.7,5.4,1.7,5,2.1L2.1,4.9   c-0.4,0.4-0.4,1,0,1.4l1,1C2.9,7.9,2.7,8.4,2.5,9H1.1C0.5,9,0,9.4,0,10v4c0,0.6,0.5,1,1.1,1h1.5c0.2,0.6,0.4,1.1,0.7,1.6l-1,1   c-0.4,0.4-0.4,1,0,1.4L5,21.9c0.4,0.4,1,0.4,1.4,0l1-1C7.9,21.1,8,21.4,9,21.5V23c0,0.6,0.5,1,1.1,1h4c0.6,0,0.9-0.4,0.9-1v-1.5   c1-0.2,1.1-0.4,1.6-0.7l1,1c0.4,0.4,1,0.4,1.4,0l2.8-2.8c0.4-0.4,0.4-1,0-1.4l-1-1c0.3-0.5,0.5-1.1,0.7-1.6h1.5   c0.6,0,0.9-0.4,0.9-1v-4C24,9.4,23.6,9,23.1,9z M22,13h-2c-0.1,0.7-0.3,1.4-0.5,2l0,0.1c-0.3,0.6-0.6,1.2-1.1,1.8l1.4,1.4   c-0.2,0.3-0.4,0.7-0.7,0.7c0,0,0,0,0,0c-0.2,0-0.5,0.5-0.7,0.7L17,18.3c-0.5,0.4-1.1,0.8-1.8,1.1l-0.1,0c-0.6,0.3-1,0.4-2,0.5v2   c0,0-0.7,0.1-1,0.1s-1,0-1-0.1v-2c-1-0.1-1.3-0.3-2-0.5l-0.1,0c-0.6-0.3-1.2-0.6-1.8-1.1l-1.4,1.4c-0.3-0.2-0.5-0.4-0.7-0.7   c0,0,0,0,0,0c-0.2-0.2-0.5-0.5-0.7-0.7l1.4-1.4c-0.4-0.5-0.8-1.1-1.1-1.8l0-0.1c-0.3-0.6-0.4-1.3-0.5-2h-2c0-0.3-0.1-0.7-0.1-1   s0-0.7,0.1-1h2c0.1-0.7,0.3-1.4,0.5-2l0-0.1C5,8.2,5.3,7.6,5.7,7.1L4.3,5.7C4.5,5.4,4.7,5.2,5,4.9c0,0,0,0,0,0   c0.2-0.2,0.5-0.5,0.7-0.7l1.4,1.4c0.5-0.4,1.1-0.8,1.8-1.1l0.1,0c0.6-0.3,1-0.4,2-0.5v-2C11,2,11.7,2,12,2s1,0,1,0.1v2   c1,0.1,1.4,0.3,2,0.5l0.1,0c0.6,0.3,1.2,0.6,1.8,1.1l1.4-1.4c0.3,0.2,0.5,0.4,0.7,0.7c0,0,0,0,0,0c0.2,0.2,0.5,0.5,0.7,0.7   l-1.4,1.4c0.4,0.5,0.8,1.1,1.1,1.8l0,0.1c0.3,0.6,0.4,1.3,0.5,2h2c0,0.3,0.1,0.7,0.1,1S22,12.7,22,13z"/><path d="M12.1,8c-2.2,0-4,1.8-4,4s1.8,4,4,4s4-1.8,4-4S14.3,8,12.1,8z M12.1,15c-1.7,0-3-1.3-3-3s1.3-3,3-3s3,1.3,3,3   S13.7,15,12.1,15z"/></g></svg>