<?xml version="1.0" ?><!DOCTYPE svg  PUBLIC '-//W3C//DTD SVG 1.1//EN'  'http://www.w3.org/Graphics/SVG/1.1/DTD/svg11.dtd'><svg enable-background="new 0 0 24 24" height="24px" id="Layer_1" version="1.1" viewBox="0 0 24 24" width="24px" xml:space="preserve" xmlns="http://www.w3.org/2000/svg" xmlns:xlink="http://www.w3.org/1999/xlink"><path d="M20.7,9l2.3,2.3V10l-2-2h-2.3C17.7,5.9,16,4.2,14,3.5V0h-1v3.2C12.5,3.1,12,3,11.5,3s-1,0.1-1.5,0.2V0H9v3.5  C7,4.2,5.3,5.9,4.3,8H2l-2,2v1.3L2.3,9h1.5c-0.5,1.2-0.8,2.6-0.8,4H2l-2,2v1.3L2.3,14H3c0.1,1.4,0.3,2.8,0.8,4H2l-2,2v1.3L2.3,19h2  c1.5,3,4.2,5,7.2,5s5.7-2,7.2-5h2l2.3,2.3V20l-2-2h-1.8c0.5-1.2,0.8-2.6,0.8-4h0.7l2.3,2.3V15l-2-2h-1c-0.1-1.4-0.3-2.8-0.8-4H20.7z   M11.5,5c2.7,0,5,2.1,6,5h-12C6.5,7.1,8.8,5,11.5,5z M4.9,13.5c0-0.9,0.1-1.7,0.3-2.5H11v11C7.6,21.6,4.9,18,4.9,13.5z M12,22V11  h5.8c0.2,0.8,0.3,1.6,0.3,2.5C18.1,18,15.4,21.6,12,22z"/></svg>