<?xml version="1.0" ?><!DOCTYPE svg  PUBLIC '-//W3C//DTD SVG 1.1//EN'  'http://www.w3.org/Graphics/SVG/1.1/DTD/svg11.dtd'><svg enable-background="new 0 0 24 24" height="24px" id="Layer_1" version="1.1" viewBox="0 0 24 24" width="24px" xml:space="preserve" xmlns="http://www.w3.org/2000/svg" xmlns:xlink="http://www.w3.org/1999/xlink"><g><path d="M14.5,6c-0.2,0-0.3,0-0.5,0l-4-4v4.7C8.3,7.3,6.9,8.2,6,9.3C4.8,7.8,2.6,6.7,0,6.2V8v0.2v7.5V16v1.7c2.6-0.5,4.8-1.6,6-3.1   c0.9,1.1,2.3,2,4,2.6V22l4.1-4.1c0.1,0,0.3,0,0.4,0c5.2,0,9.5-2.7,9.5-6S19.7,6,14.5,6z M2,15.1V8.8c1.9,0.8,3,2,3,3.1   S3.9,14.3,2,15.1z M14,15.9c-0.3,0-0.7,0-1-0.1V8.1C13.3,8,13.7,8,14,8V15.9z M11,4.5l1.6,1.6c-0.6,0.1-1.1,0.2-1.6,0.3V4.5z    M11,8.5c0.3-0.1,0.7-0.2,1-0.2v7.5c-0.3-0.1-0.7-0.2-1-0.2V8.5z M7,12c0-1.1,1.1-2.3,3-3.1v6.3C8.1,14.3,7,13.1,7,12z M11,19.5v-2   c0.5,0.1,1.1,0.2,1.7,0.3L11,19.5z M15,15.9V8c4.1,0.2,7,2.1,7,4S19.1,15.8,15,15.9z"/><circle cx="19" cy="11" r="1"/></g></svg>